<svg width="110" height="69" viewBox="0 0 110 69" fill="none" xmlns="http://www.w3.org/2000/svg">
<g clip-path="url(#clip0_160_2287)">
<path d="M102.692 6.75626C100.245 6.75626 98.2403 7.65229 96.306 8.81188C95.5509 9.26229 94.8191 9.73667 94.0827 10.2206C93.4066 10.7146 92.698 11.1597 91.9619 11.5527C90.503 12.2379 88.6619 11.7396 87.3009 10.9873C86.8444 10.7322 86.4122 10.4339 86.0098 10.096C85.6742 9.80855 85.2547 9.45876 84.9517 9.13771V33.5752H91.9898V17.9831C92.0149 16.6422 92.3134 15.3216 92.8661 14.1067C93.2622 13.2064 93.7974 12.3779 94.4509 11.6533C95.0172 11.0012 95.704 10.4713 96.4714 10.0945C97.2388 9.71775 98.0714 9.50164 98.9208 9.45876C101.223 9.45876 102.347 11.0544 102.347 15.1081V28.381C102.347 31.4621 102.584 33.3931 108.779 33.3931H109.389V14.7679C109.315 9.99063 107.716 6.75626 102.692 6.75626Z" fill="#E2DAC3"/>
<path d="M0.755066 40.5663H10.6504L18.9237 58.971L20.8534 53.4654C21.5199 51.6302 21.9394 50.4227 21.2169 48.5875C18.8864 43.3454 22.1212 40.5663 25.6216 40.5663H27.486L35.694 58.8656L39.2551 48.5875C40.4623 45.2333 37.2042 42.5596 37.2042 40.5663H43.2962L33.4614 69.0383H30.3199L22.6059 51.6829C22.5546 52.0095 22.4734 52.3303 22.3635 52.6412L16.6258 69.0527H13.489L0.755066 40.5663Z" fill="#E2DAC3"/>
<path d="M54.3335 47.0638V64.9654C54.3335 67.5769 54.0818 69.206 47.342 69.206H46.6801V50.8683C46.6801 49.4788 47.878 48.2665 49.5793 47.9502L54.3335 47.0638Z" fill="#E2DAC3"/>
<path d="M108.965 63.3267C108.634 63.4369 108.331 63.9352 108.033 64.1796C106.672 65.205 105.339 66.0962 103.624 66.3023C102.587 66.4416 101.534 66.3644 100.527 66.0755C99.5196 65.7866 98.5796 65.2918 97.7628 64.6208C96.9461 63.9498 96.2694 63.1164 95.7732 62.1703C95.277 61.2243 94.9715 60.185 94.875 59.1148L90.5682 65.3679C92.8428 67.8979 96.1148 69.0287 99.7737 69.0287C103.936 69.0287 107.539 66.6329 109.851 63.3171C109.557 63.2798 109.259 63.283 108.965 63.3267Z" fill="#E2DAC3"/>
<path d="M94.558 51.3619C94.558 51.3619 94.558 51.4625 94.558 51.6446C94.558 51.5535 94.558 51.4577 94.5865 51.3619H94.558Z" fill="#E2DAC3"/>
<path d="M109.874 47.8448C109.593 46.9772 109.167 46.1665 108.616 45.449C107.79 44.2617 106.756 43.2429 105.567 42.4446C103.81 41.311 101.778 40.7082 99.7038 40.7052C92.8335 40.7052 87.2729 45.2956 87.2729 55.1329C87.2729 55.2719 87.2729 55.4156 87.2729 55.5546C87.2837 57.3402 87.5427 59.1151 88.042 60.8254C88.1752 61.2209 88.3309 61.6081 88.5081 61.985C88.62 62.2342 88.9276 62.8044 88.9276 62.8044C88.2842 63.6924 87.4499 64.4156 86.4899 64.9175C85.9768 65.2212 85.3734 65.3217 84.7933 65.2002C84.0801 65.0181 84.164 64.4958 84.1127 63.8585C84.0801 63.4417 84.1127 63.02 84.1127 62.5983V49.1529C84.0102 44.0498 82.3089 40.595 76.9441 40.595C72.9356 40.595 70.0598 42.8375 66.8204 44.941C66.3546 45.2762 65.8445 45.5409 65.3055 45.7269C64.8497 45.85 64.3768 45.8922 63.9072 45.8515C62.8378 45.7745 61.7976 45.4589 60.8589 44.9267C60.3642 44.6537 59.896 44.3328 59.4606 43.9683C59.0636 43.65 58.6854 43.3076 58.328 42.9429V69.0335H65.8462V52.3969C65.8705 50.9649 66.1882 49.5542 66.7784 48.2569C67.9297 45.6742 70.0877 43.4652 72.9123 43.4652C75.364 43.4652 76.5712 45.1662 76.5712 49.4883V64.7929C76.5389 65.4337 76.5733 66.0763 76.6738 66.7096V66.7862C76.8835 68.5496 79.1161 68.9712 80.5238 69.0096C81.448 69.0534 82.3705 68.8899 83.2271 68.5304C87.2682 66.7479 90.4284 62.3013 92.8055 58.8081C94.2038 56.7813 95.8166 54.4621 98.0538 53.3456C100.072 52.3298 102.417 52.1908 104.631 52.1189C105.316 52.1189 105.563 52.1189 106.029 52.1189C107.66 52.1189 109.585 51.2852 109.972 49.5171C110.078 48.9601 110.044 48.3847 109.874 47.8448ZM97.7322 52.7754C96.8211 53.2535 95.9966 53.8889 95.2945 54.6537L94.8797 55.0802C94.8797 54.601 94.9123 54.1219 94.9403 53.6427C94.9403 53.5038 94.9403 53.3408 94.9403 53.1252C94.9403 52.9096 94.9403 52.7802 94.9822 52.6029C95.0102 52.1477 95.0382 51.7117 95.0615 51.3331C95.0615 51.0887 95.0894 50.8539 95.1127 50.6048C95.1127 50.5377 95.1127 50.4754 95.1127 50.4179C95.1127 50.3604 95.1127 50.2502 95.136 50.1879C95.136 50.001 95.136 49.8956 95.136 49.8956L95.1733 49.4788C95.3166 47.8143 95.6918 46.1796 96.2873 44.6248C96.9026 43.1442 97.9933 41.7498 99.6992 41.7498C103.465 41.7498 104.3 46.3738 104.5 49.3446C104.5 49.4308 104.5 49.5746 104.5 49.7519V49.7998L104.561 51.4769C102.295 51.6062 99.867 51.7021 97.7322 52.7754Z" fill="#E2DAC3"/>
<path d="M21.3195 12.9758C22.3962 9.50188 24.7919 6.89521 29.2432 6.89521C34.2631 6.89521 35.8619 10.1296 35.9551 14.9069V33.5417H35.3445C29.15 33.5417 28.9123 31.625 28.9123 28.5248V15.2519C28.9123 11.1981 27.789 9.6073 25.7195 9.6073C22.5313 9.6073 21.45 14.399 21.45 17.9544V33.5417H20.8394C14.6449 33.5417 14.4072 31.625 14.4072 28.5248V15.2519C14.4072 11.1981 13.2839 9.6073 11.2144 9.6073C8.02161 9.6073 6.94491 14.399 6.94491 17.9544V33.5417H-0.088562V9.01792C0.307191 9.29717 0.718026 9.55313 1.14195 9.78458C1.99017 10.2252 2.90654 10.5106 3.85 10.6279C4.41477 10.7117 4.9864 10.7358 5.55594 10.6998C6.09869 10.6985 6.63688 10.5979 7.14533 10.4027C8.2733 9.84688 9.18686 8.93167 10.2496 8.25125C11.2571 7.60895 12.3809 7.18351 13.553 7.00066C14.7251 6.81782 15.9211 6.88138 17.0686 7.1875C17.8533 7.39296 18.582 7.7799 19.1992 8.31883C19.8163 8.85776 20.3056 9.53445 20.6297 10.2973C20.9838 11.1514 21.2161 12.0535 21.3195 12.9758Z" fill="#E2DAC3"/>
<path d="M57.9504 8.37583C55.3913 7.06455 52.4793 6.6699 49.6771 7.25458C47.5011 7.70557 45.4752 8.72608 43.7951 10.2174C42.115 11.7088 40.8376 13.6205 40.0864 15.7678C39.3352 17.9152 39.1357 20.2254 39.507 22.4752C39.8784 24.725 40.8081 26.8382 42.2062 28.6106C43.6044 30.383 45.4237 31.7545 47.4883 32.5926C49.5529 33.4308 51.7929 33.7071 53.9918 33.395C56.1906 33.0828 58.274 32.1927 60.0403 30.8107C61.8067 29.4287 63.1964 27.6016 64.075 25.506C64.7732 23.8518 65.1318 22.0672 65.1283 20.264C65.1313 17.791 64.4605 15.3666 63.1918 13.2654C61.9232 11.1643 60.1074 9.47046 57.9504 8.37583ZM52.2453 32.5833C49.6538 32.5833 47.9059 30.3121 46.9364 27.2119C46.2888 24.9931 45.9744 22.6857 46.0042 20.3694C46.0461 14.9117 47.9152 7.99729 52.2173 7.97333C54.2822 7.97333 55.8017 9.57374 56.8131 11.8354C57.9131 14.2887 58.4305 17.5279 58.4538 20.3742V20.6042C58.4538 25.0508 57.3025 29.6221 54.9067 31.5723C54.1576 32.2114 53.2186 32.5681 52.2453 32.5833Z" fill="#E2DAC3"/>
<path d="M77.1771 4.58083C74.9541 2.84722 72.2654 1.86006 69.4771 1.75375C67.8208 1.7112 66.1742 2.02624 64.6436 2.67854C64.2576 2.84341 63.8824 3.03388 63.5203 3.24875C63.1771 3.4264 62.8626 3.65754 62.5881 3.93396C62.5337 3.9836 62.4913 4.04565 62.4644 4.11514C62.4375 4.18464 62.4268 4.25965 62.4331 4.33417C62.4395 4.40869 62.4627 4.48064 62.5009 4.54427C62.5392 4.60791 62.5914 4.66145 62.6534 4.70062C62.8352 4.81562 63.0402 4.78208 63.2313 4.85875C64.0007 5.13127 64.7312 5.50836 65.4034 5.97999C66.0326 6.40166 66.6758 6.82812 67.2678 7.2977C68.4557 8.18065 69.4709 9.2861 70.2601 10.556C71.0504 11.8187 71.6066 13.2206 71.9008 14.6912C72.0785 16.0989 71.993 17.5284 71.6491 18.9031C71.2716 20.676 70.4233 22.2094 69.575 23.781C69.549 23.8288 69.5339 23.882 69.5307 23.9366C69.5274 23.9912 69.5362 24.0459 69.5564 24.0965C69.5765 24.1471 69.6075 24.1925 69.6471 24.2291C69.6866 24.2657 69.7336 24.2928 69.7847 24.3081C70.4491 24.3983 71.1237 24.2565 71.7004 23.9056C72.3203 23.6133 72.9262 23.2779 73.5648 22.9952C74.2992 22.6824 75.0138 22.3223 75.7042 21.9171C76.344 21.5143 76.9327 21.0315 77.4568 20.4796C79.5449 18.2946 80.3932 15.3429 80.561 12.3337C80.6757 10.8015 80.4195 9.26394 79.8152 7.85833C79.2117 6.55924 78.3055 5.43343 77.1771 4.58083ZM77.4941 19.3583C77.0327 19.9357 76.5053 20.4537 75.9233 20.9012C75.2445 21.3882 74.5162 21.7979 73.7513 22.1231C73.0987 22.425 72.4462 22.7269 71.8076 23.0575C71.3903 23.3143 70.9378 23.5049 70.4652 23.6229C71.196 22.3814 71.7752 21.0521 72.1898 19.665C72.6185 18.1806 72.7766 16.6276 72.6559 15.0842C72.4451 13.5396 71.9364 12.0539 71.1597 10.7142C70.3788 9.31295 69.346 8.07712 68.1161 7.07249C67.4378 6.52219 66.7331 6.00724 66.0046 5.52958C65.2083 4.95422 64.3375 4.49618 63.4178 4.16875C63.5436 4.0777 63.6695 3.99625 63.8 3.91479C64.3676 3.56632 64.971 3.28349 65.5991 3.07146C66.8629 2.63607 68.1914 2.43331 69.5237 2.4725C72.052 2.5899 74.4918 3.46428 76.5432 4.98812C77.5581 5.71619 78.3955 6.67552 78.9902 7.79124C79.6128 9.02209 79.9192 10.396 79.8805 11.7827C79.8432 14.466 79.1907 17.25 77.4941 19.3583Z" fill="#E2DAC3"/>
<path d="M75.3593 5.70688C74.0657 4.54027 72.4616 3.79919 70.7542 3.57938C69.923 3.46453 69.0853 3.4069 68.2466 3.40688C67.6546 3.40688 66.755 3.36854 66.3029 3.83812C66.2645 3.87466 66.2357 3.92069 66.2194 3.97184C66.2031 4.02298 66.1998 4.07757 66.2097 4.13041C66.2077 4.20364 66.2316 4.27513 66.2771 4.33155C66.3225 4.38798 66.3864 4.42548 66.4567 4.43708C68.6288 4.91625 70.1576 6.66521 71.2576 8.55313C72.5519 10.7116 73.4007 13.1205 73.7512 15.6304C73.9317 17.2222 73.9317 18.8302 73.7512 20.4221C73.7512 20.5174 73.7881 20.6088 73.8536 20.6762C73.9192 20.7436 74.0081 20.7815 74.1008 20.7815C74.4789 20.7104 74.8391 20.5612 75.1596 20.3429C75.48 20.1247 75.7541 19.8419 75.9652 19.5117C76.4911 18.8007 76.9367 18.0307 77.2936 17.2165C78.279 15.2473 78.6268 13.0062 78.2864 10.8196C77.8866 8.82983 76.8574 7.03208 75.3593 5.70688ZM76.9067 16.2917C76.5952 17.0712 76.2128 17.8188 75.7648 18.5246C75.4556 19.0976 75.0117 19.5819 74.4737 19.9333C74.7587 17.1265 74.4175 14.2899 73.4762 11.639C72.6699 9.47791 71.5606 7.24021 69.9152 5.62062C69.2975 5.0017 68.5779 4.50039 67.7898 4.14H68.1067C68.8136 4.13584 69.52 4.17263 70.2228 4.25021C71.689 4.37365 73.096 4.89993 74.2966 5.77396C75.7531 6.85821 76.8342 8.39277 77.3822 10.1535C77.9295 12.1935 77.7612 14.3664 76.9067 16.2917Z" fill="#E2DAC3"/>
<path d="M74.3199 6.555C73.672 5.95125 72.7864 5.43854 71.9288 5.91771C71.8786 5.94776 71.8368 5.99068 71.8076 6.04229C71.7655 6.09402 71.7424 6.15932 71.7424 6.22677C71.7424 6.29422 71.7655 6.35952 71.8076 6.41125C72.9491 7.94743 73.7896 9.6968 74.2826 11.5623C74.6555 13.1292 74.5716 14.8494 75.308 16.306C75.3303 16.3461 75.36 16.3813 75.3955 16.4095C75.431 16.4377 75.4716 16.4584 75.5149 16.4704C75.5582 16.4825 75.6034 16.4856 75.6479 16.4796C75.6924 16.4735 75.7353 16.4585 75.7741 16.4354C77.3775 15.2135 77.0745 12.6548 76.7063 10.9058C76.3592 9.24001 75.5268 7.72239 74.3199 6.555ZM75.7182 15.5106C75.5166 14.888 75.3776 14.2457 75.3034 13.594C75.2125 12.7786 75.0771 11.9691 74.8978 11.1694C74.4235 9.46769 73.6701 7.86176 72.6699 6.42083C73.1091 6.48973 73.5122 6.71127 73.8118 7.04854C74.3906 7.61602 74.8825 8.2703 75.2707 8.98916C75.9724 10.3337 76.3195 11.8436 76.2775 13.3687C76.3227 14.1249 76.1299 14.8759 75.7275 15.5106H75.7182Z" fill="#E2DAC3"/>
<path d="M80.9152 6.785C79.7127 4.38917 77.4754 2.50125 75.1729 1.25063C72.7162 -0.0981184 69.863 -0.471588 67.1559 0.201251C64.4385 0.867293 62.0288 2.40542 59.8754 4.19271C59.3823 4.52117 58.982 4.97728 58.7148 5.51521C58.6992 5.54913 58.6903 5.58592 58.6886 5.62342C58.687 5.66092 58.6926 5.69837 58.7052 5.73361C58.7178 5.76885 58.7371 5.80116 58.7619 5.82865C58.7868 5.85615 58.8167 5.87828 58.85 5.89375L58.8779 5.9225C59.2579 6.09843 59.674 6.17577 60.0898 6.14771C60.5361 6.14271 60.982 6.17637 61.4229 6.24833C62.7559 6.555 63.9025 7.51333 64.8953 8.42854C65.9797 9.40239 66.9216 10.5321 67.6919 11.7827C68.4126 13.0254 68.9129 14.3899 69.1695 15.8125C69.4958 17.266 69.4958 18.7769 69.1695 20.2304C68.764 21.6182 68.1776 22.9432 67.4262 24.1692C67.2351 24.4998 67.0441 24.8304 66.8623 25.1611C66.709 25.3963 66.5824 25.6486 66.4847 25.9133C66.3356 26.45 66.7877 26.6704 67.2212 26.7375C68.6195 26.9483 69.9712 26.4692 71.2763 26.0763C71.9381 25.875 72.6046 25.7217 73.2525 25.4773C73.8801 25.2425 74.488 24.9557 75.0703 24.6196C76.2011 23.9214 77.2682 23.1196 78.2584 22.2238C79.2474 21.4552 80.1031 20.5204 80.7894 19.459C81.4506 18.2301 81.8599 16.8749 81.9919 15.4771C82.3881 12.559 82.2483 9.46834 80.9152 6.785ZM67.1652 25.9996H67.086C67.1466 25.9133 67.1606 25.9469 67.1652 25.9996ZM81.4419 14.0204C81.3975 15.4345 81.1331 16.8322 80.6589 18.1604C80.1821 19.2864 79.452 20.28 78.5288 21.0594C76.6318 22.7844 74.6089 24.4135 72.1199 25.094C70.8474 25.439 69.561 25.9708 68.2373 26.0523C67.9388 26.0762 67.6388 26.0666 67.3424 26.0235L67.2258 25.9948C67.5381 25.4006 67.8737 24.8304 68.2 24.2506C68.9186 23.0549 69.4783 21.7657 69.864 20.4173C70.1721 19.057 70.2039 17.646 69.9572 16.2725C69.7601 14.9043 69.3625 13.5747 68.7779 12.329C68.154 11.0745 67.3512 9.92298 66.3962 8.91251C65.4981 7.89482 64.4676 7.00957 63.3339 6.28188C62.7871 5.93296 62.1889 5.67729 61.5627 5.52479C61.1213 5.45677 60.6759 5.41995 60.2296 5.41459C60.0572 5.41459 59.8008 5.41459 59.5817 5.38584C59.6858 5.26584 59.7996 5.15522 59.922 5.05521C60.169 4.8348 60.4254 4.62875 60.6818 4.42271C61.2069 3.99146 61.7491 3.58736 62.3084 3.21042C63.4099 2.45147 64.5922 1.82448 65.8322 1.34167C68.3006 0.357252 71.0319 0.323218 73.5229 1.24584C74.7386 1.73756 75.8822 2.40034 76.9207 3.21521C77.9634 3.99395 78.8817 4.93479 79.6428 6.00396C80.4197 7.15788 80.9604 8.46203 81.2322 9.83729C81.4839 11.2222 81.5544 12.6355 81.4419 14.0396V14.0204Z" fill="#E2DAC3"/>
<path d="M53.7835 38.1992C53.1101 37.2437 52.1118 36.5834 50.9869 36.3496C50.4118 36.2351 49.819 36.2572 49.2535 36.4142C48.6881 36.5711 48.165 36.8588 47.7241 37.2552C47.0624 37.7341 46.5791 38.4304 46.3538 39.2294C46.2531 40.0061 46.3346 40.7964 46.5915 41.5342C46.7835 42.4442 47.1793 43.2957 47.7474 44.021C48.31 44.6858 49.0761 45.1336 49.9195 45.2908C51.5182 45.5783 53.3966 44.941 54.189 43.4077C54.5732 42.5796 54.738 41.662 54.6668 40.7474C54.5956 39.8329 54.2909 38.9539 53.7835 38.1992ZM53.7462 42.7369C53.2381 44.0929 51.8165 44.7062 50.4835 44.6535C48.9267 44.5769 47.8593 43.3358 47.4445 41.8744C47.1636 41.1427 47.0273 40.3608 47.0436 39.5744C47.1322 38.8077 47.7055 38.2471 48.2555 37.7823C48.5932 37.4821 48.9901 37.2607 49.419 37.1333C49.8478 37.006 50.2984 36.9756 50.7398 37.0444C51.612 37.2032 52.4076 37.6568 53.0004 38.3333C53.483 38.9392 53.8053 39.6629 53.9359 40.4344C54.0666 41.2059 54.0012 41.999 53.7462 42.7369Z" fill="#E2DAC3"/>
<path d="M49.1225 38.1321L49.0899 38.1608L49.0526 38.1848C48.7442 38.4138 48.495 38.717 48.3268 39.0678C48.1586 39.4186 48.0766 39.8064 48.0877 40.1973C48.1852 40.8962 48.4583 41.5568 48.8801 42.114C49.5559 43.125 50.5161 44.1888 51.8259 44.0785C52.8 43.9971 53.2941 43.149 53.4013 42.2242C53.4997 41.2491 53.2975 40.2668 52.8233 39.4163C52.1521 38.2375 50.339 37.2888 49.1225 38.1321ZM52.5577 42.7752C52.5051 42.9089 52.4257 43.0298 52.3246 43.1298C52.2396 43.2138 52.1378 43.2775 52.0263 43.3167C51.6694 43.404 51.2944 43.3687 50.9589 43.2161C50.4837 42.9777 50.0773 42.616 49.7797 42.1667C49.3794 41.694 49.0638 41.1522 48.8475 40.5663C48.7528 40.2309 48.7636 39.8734 48.8783 39.5447C48.993 39.216 49.2057 38.9329 49.486 38.7358C50.325 38.1896 51.6161 38.87 52.0962 39.6079C52.5054 40.2605 52.7208 41.0214 52.7161 41.7977C52.7291 42.1313 52.6751 42.464 52.5577 42.7752Z" fill="#E2DAC3"/>
<path d="M51.2711 39.3779C50.9909 39.1631 50.6553 39.0381 50.3063 39.0185C50.1671 39.0191 50.0307 39.0592 49.9122 39.1345C49.7938 39.2097 49.6979 39.3172 49.6351 39.445C49.5453 39.7347 49.5238 40.0423 49.5724 40.3422C49.6211 40.6421 49.7384 40.9259 49.9148 41.17C50.099 41.4781 50.3396 41.7466 50.6232 41.9606C50.8898 42.1859 51.213 42.3288 51.5555 42.3727C51.6925 42.3835 51.8297 42.3547 51.9516 42.2895C52.0735 42.2243 52.1752 42.1253 52.2453 42.0037C52.36 41.77 52.4007 41.5053 52.3618 41.2467C52.3121 40.8756 52.1899 40.5188 52.0024 40.1976C51.815 39.8764 51.5662 39.5976 51.2711 39.3779ZM50.2783 39.7421C50.2783 39.7421 50.297 39.7181 50.2923 39.7277L50.2783 39.7421ZM51.672 41.5485V41.515C51.6742 41.5245 51.6742 41.5343 51.672 41.5438V41.5965V41.6252H51.6067H51.5275L51.4483 41.5965H51.4203L51.2292 41.4862L51.0334 41.3473L50.9495 41.2706L50.805 41.1221C50.7808 41.0971 50.7589 41.0699 50.7398 41.0406C50.7297 41.0333 50.7216 41.0234 50.7165 41.0119C50.638 40.906 50.5678 40.7938 50.5067 40.6765C50.4834 40.6333 50.4648 40.5854 50.4461 40.5423V40.5135V40.4848L50.4182 40.3985C50.4182 40.341 50.3855 40.2835 50.3716 40.226C50.3689 40.199 50.3689 40.1717 50.3716 40.1446V40.1158C50.3693 40.0727 50.3693 40.0296 50.3716 39.9865V39.905C50.383 39.8705 50.3924 39.8353 50.3995 39.7996H50.5347L50.6372 39.8331H50.6838C50.7167 39.852 50.751 39.868 50.7864 39.881L51.0521 40.0392H51.0754L51.1453 40.1015C51.1952 40.1441 51.242 40.1905 51.2851 40.2404L51.3504 40.3171C51.3504 40.3171 51.4296 40.4321 51.3504 40.3171C51.3877 40.3794 51.4296 40.4321 51.4669 40.4896C51.5042 40.5471 51.5927 40.7196 51.6487 40.8346L51.6766 40.9208C51.7002 40.9831 51.7189 41.0472 51.7326 41.1125C51.7326 41.1604 51.7559 41.2131 51.7652 41.261C51.7652 41.2898 51.7652 41.3185 51.7652 41.3425C51.7699 41.3871 51.7699 41.4321 51.7652 41.4767C51.6673 41.5294 51.6627 41.5533 51.6627 41.5725L51.672 41.5485Z" fill="#E2DAC3"/>
<path d="M50.5627 39.7996C50.6101 39.8331 50.5912 39.7996 50.5627 39.7996V39.7996Z" fill="#E2DAC3"/>
<path d="M51.6348 41.6499V41.6444H51.6402L51.6348 41.6499Z" fill="#E2DAC3"/>
<path d="M50.9735 41.3333C50.9587 41.3087 50.9587 41.3185 50.9735 41.3333V41.3333Z" fill="#E2DAC3"/>
<path d="M50.339 40.48V40.5183C50.341 40.5056 50.341 40.4927 50.339 40.48Z" fill="#E2DAC3"/>
</g>
<defs>
<clipPath id="clip0_160_2287">
<rect width="110" height="69" fill="white"/>
</clipPath>
</defs>
</svg>
